# xmcd CD database file generated by OrangeCD 6.4
#
# Track frame offsets:
#	150
#	12855
#	27379
#	32532
#	50006
#	54913
#	61000
#	72374
#	85459
#	98461
#	113667
#	125877
#	139644
#	154175
#	169196
#	190326
#	206829
#	222158
#	238970
#	253085
#	264846
#	276632
#	289810
#
# Disc length: 4053 seconds
#
# Revision: 0
# Processed by: cddbd v1.5.2PL0 Copyright (c) Steve Scherf et al.
# Submitted via: OrangeCD 6.4
#
DISCID=580fd317
DTITLE=Albert Ammons - 1936-1946 Alternate Takes, Radio Performances, Unissued 
DTITLE=Home Recordings
DYEAR=1997
DGENRE=
TTITLE0=Nagasaki (Alt. Take)
TTITLE1=Early Mornin' Blues (Alt. Take)
TTITLE2=Introduction/
TTITLE3=Pinetop's Boogie Woogie
TTITLE4=Boogie In C
TTITLE5=Shout For Joy
TTITLE6=Boogie Woogie Stomp
TTITLE7=The Boogie Rocks #2
TTITLE8=Funky Start Boogie
TTITLE9=Blue Blue Blues
TTITLE10=Bugle Boogie No. 2
TTITLE11=Reveille Boogie
TTITLE12=Blues In The Groove No. 2
TTITLE13=The Breaks No. 2
TTITLE14=Bottom Blues No. 2
TTITLE15=Whistlin' Blues (Private Home Recording)
TTITLE16=I Had To Move That Thing  (Private Home Recording)
TTITLE17=Dying Mother Blues - Part One  (Private Home Recording)
TTITLE18=Dying Mother Blues - Part Two  (Private Home Recording)
TTITLE19=Swanee River Boogie (Alt. Take)
TTITLE20=Swanee River Boogie  (2nd Alt. Take)
TTITLE21=I Don't Want To See You (Alt. Take)
TTITLE22=Rock Of Gibraltar Blues (Alt. Take)
EXTD=
EXTT0=
EXTT1=
EXTT2=
EXTT3=
EXTT4=
EXTT5=
EXTT6=
EXTT7=
EXTT8=
EXTT9=
EXTT10=
EXTT11=
EXTT12=
EXTT13=
EXTT14=
EXTT15=
EXTT16=
EXTT17=
EXTT18=
EXTT19=
EXTT20=
EXTT21=
EXTT22=
PLAYORDER=
